<svg width="59" height="58" viewBox="0 0 59 58" fill="none" xmlns="http://www.w3.org/2000/svg">
<ellipse cx="29.5" cy="29" rx="29.5" ry="29" fill="#D9885E"/>
<path d="M17.2139 36.7678C15.5168 33.9908 16.1809 28.8871 16.7712 27.0108L18.3944 26.5604C18.3944 26.5604 17.9517 24.0086 19.8701 21.5318C22.1574 18.6047 28.7241 12.6755 41.1936 12C36.619 17.1787 33.3725 26.0351 32.5609 27.311C30.8639 28.5118 29.1668 29.2624 29.1668 29.2624L30.7163 30.7635C30.7163 30.8385 22.3049 38.1938 17.2139 36.7678Z" fill="white"/>
<path d="M31.4538 19.3555C21.9357 26.7107 16.9922 36.0174 15 42.1718" stroke="white" stroke-width="2" stroke-miterlimit="10" stroke-linecap="round"/>
<path d="M31.4539 19.3555C21.9358 26.7107 20.6131 30.8576 17.3389 36.5147" stroke="#D9885E" stroke-width="2" stroke-miterlimit="10" stroke-linecap="round"/>
<path d="M18.7422 43.741C19.7677 43.0535 25.4083 40.0741 23.87 43.741C22.3316 47.4079 31.2687 41.984 32.6605 41.1436C33.9791 40.3033 35.5906 39.3866 37.422 38.8518C41.0115 37.6295 45.2602 38.8518 43.6486 42.9771" stroke="white" stroke-width="2" stroke-miterlimit="10"/>
</svg>
