<svg width="93" height="16" viewBox="0 0 93 16" fill="none" xmlns="http://www.w3.org/2000/svg">
<path d="M10.5647 4.77302H9.8473C9.8473 3.63856 9.58645 2.86381 9.06474 2.44877C8.55752 2.03372 7.84016 1.84003 6.91268 1.8677L5.04321 1.90921C4.5215 1.92304 4.14471 2.01989 3.91284 2.19974C3.68096 2.36576 3.53604 2.60787 3.47808 2.92607C3.42011 3.23044 3.39112 3.71466 3.39112 4.37873V7.69909L7.47786 7.71984L7.3257 5.93515H8.28217V10.2931H7.56482C7.56482 9.78124 7.4996 9.39386 7.36917 9.131C7.23875 8.8543 7.03586 8.67445 6.76051 8.59144C6.49965 8.4946 6.13011 8.44617 5.65187 8.44617L4.978 8.46693L3.39112 8.52918V13.2815C3.39112 14.0009 3.36939 14.5404 3.32591 14.9001L7.47786 14.8379C8.4923 14.824 9.26762 14.5819 9.80383 14.1115C10.34 13.6273 10.6081 12.7972 10.6081 11.6213H11.3472L11.2168 15.668H0V14.9831C0.50722 14.9693 0.869519 14.8586 1.0869 14.6511C1.30428 14.4436 1.42746 14.2015 1.45644 13.9248C1.48543 13.6342 1.49992 13.1362 1.49992 12.4306V3.46563C1.49992 2.88457 1.52166 2.38651 1.56513 1.97146L0 2.05447V1.14137H10.456L10.5647 4.77302Z" fill="#2F3438"/>
<path d="M21.0758 8.30091V9.67056L13.3588 9.75357V8.30091H21.0758Z" fill="#2F3438"/>
<path d="M34.5491 5.5201H33.7231C33.7086 4.64851 33.6144 3.95677 33.4405 3.44488C33.2811 2.91915 32.9985 2.53178 32.5927 2.28275C32.2014 2.01989 31.6362 1.88846 30.8971 1.88846H29.0494L29.0277 13.1984C29.0277 13.9317 29.0059 14.4782 28.9625 14.8379L30.7667 14.7549V15.668H25.6583V14.9831C26.2814 14.9555 26.68 14.7895 26.8539 14.4851C27.0423 14.1807 27.1365 13.7103 27.1365 13.0739V12.4306L27.1582 1.90921L24.9192 1.92996C24.0207 1.92996 23.3758 2.22049 22.9845 2.80156C22.6077 3.36879 22.4193 4.27497 22.4193 5.5201H21.615L21.7455 1.14137H34.4187L34.5491 5.5201Z" fill="#2F3438"/>
<path d="M40.371 4.95979C41.197 4.95979 41.9434 5.13273 42.61 5.4786C43.2766 5.82447 43.8056 6.34328 44.1969 7.03502C44.5882 7.71293 44.7838 8.54994 44.7838 9.54605L37.132 9.67056C37.1175 11.3307 37.4001 12.6243 37.9798 13.5512C38.574 14.4782 39.487 14.9416 40.7188 14.9416C41.3854 14.9416 42.0666 14.7756 42.7622 14.4436C43.4723 14.1115 44.0157 13.7034 44.3925 13.2192L44.9142 13.6342C44.3635 14.4367 43.6462 15.0316 42.7622 15.4189C41.8926 15.8063 41.0376 16 40.1971 16C39.1971 16 38.2914 15.7786 37.4798 15.3359C36.6828 14.8794 36.0524 14.2361 35.5886 13.406C35.1249 12.562 34.893 11.5936 34.893 10.5006C34.893 9.53221 35.1249 8.62603 35.5886 7.7821C36.0524 6.92434 36.6973 6.23952 37.5233 5.72763C38.3639 5.21574 39.3131 4.95979 40.371 4.95979ZM40.3927 5.76913C38.5957 5.76913 37.5306 6.77908 37.1972 8.79896H42.7404C42.7404 7.96887 42.5448 7.25638 42.1535 6.66148C41.7622 6.06658 41.1753 5.76913 40.3927 5.76913Z" fill="#2F3438"/>
<path d="M53.3919 4.95979C54.6527 4.95979 55.5729 5.34025 56.1526 6.10117C56.7323 6.84825 57.0221 8.01729 57.0221 9.6083V13.4682C57.0221 14.0908 56.9931 14.5612 56.9352 14.8794L58.3047 14.8171V15.668H53.8701V15.0454C54.2904 15.0454 54.5875 14.9486 54.7614 14.7549C54.9498 14.5473 55.0584 14.2914 55.0874 13.987C55.1309 13.6688 55.1526 13.1777 55.1526 12.5136V9.6083C55.1382 8.4185 54.9353 7.52616 54.544 6.93126C54.1527 6.32253 53.5368 6.01816 52.6963 6.01816C52.1745 6.01816 51.6528 6.14267 51.1311 6.3917C50.6239 6.64073 50.2036 6.96585 49.8703 7.36706C49.8848 7.51924 49.8921 7.78902 49.8921 8.17639L49.8703 13.4682C49.8703 14.0908 49.8413 14.5612 49.7834 14.8794L51.1529 14.8171V15.668H46.7183V15.0454C47.1386 15.0454 47.4357 14.9486 47.6096 14.7549C47.798 14.5473 47.9067 14.2983 47.9356 14.0078C47.9646 13.7034 47.9864 13.2054 48.0009 12.5136L48.0226 7.7821C48.0226 7.20104 48.0516 6.75141 48.1095 6.4332L46.5661 6.51621V5.64462C47.4212 5.64462 48.0081 5.60311 48.3269 5.5201C48.6457 5.42326 48.9138 5.27799 49.1312 5.08431H49.7616C49.7906 5.34717 49.8196 5.76913 49.8486 6.3502C50.3413 5.93515 50.8992 5.60311 51.5224 5.35409C52.16 5.09122 52.7832 4.95979 53.3919 4.95979Z" fill="#2F3438"/>
<path d="M69.8567 13.4682C69.8567 13.9109 69.8277 14.3813 69.7697 14.8794L71.3131 14.7964V15.668H68.2046C68.1321 15.2944 68.0814 14.9347 68.0524 14.5888C67.6322 15.0316 67.1177 15.3774 66.509 15.6265C65.9149 15.8755 65.27 16 64.5744 16C63.6759 16 62.8716 15.7856 62.1614 15.3567C61.4513 14.9278 60.8934 14.3191 60.4876 13.5305C60.0818 12.7419 59.879 11.8219 59.879 10.7704C59.879 9.66364 60.1181 8.66753 60.5963 7.7821C61.0745 6.89667 61.7339 6.20493 62.5745 5.70688C63.4295 5.20882 64.3932 4.95979 65.4656 4.95979C65.9149 4.95979 66.3714 5.02205 66.8351 5.14656C67.3133 5.25724 67.7046 5.38867 68.009 5.54086V2.6978C68.009 2.17207 68.0307 1.72244 68.0742 1.3489L66.5308 1.43191V0.560312C67.3858 0.560312 67.9945 0.511889 68.3568 0.415045C68.7336 0.318202 69.0234 0.179853 69.2263 0H69.8567V13.4682ZM65.596 5.76913C64.5526 5.76913 63.7121 6.18418 63.0744 7.01427C62.4368 7.83052 62.118 8.91656 62.118 10.2724C62.118 11.6835 62.4006 12.8249 62.9658 13.6965C63.5309 14.5543 64.328 14.9831 65.3569 14.9831C65.8207 14.9831 66.2917 14.8586 66.7699 14.6096C67.2626 14.3467 67.6756 14.0147 68.009 13.6135C67.9945 13.3921 67.9872 13.0117 67.9872 12.4721L68.009 6.49546C67.3278 6.01124 66.5235 5.76913 65.596 5.76913Z" fill="#2F3438"/>
<path d="M78.3488 4.95979C79.1748 4.95979 79.9212 5.13273 80.5878 5.4786C81.2544 5.82447 81.7834 6.34328 82.1747 7.03502C82.5659 7.71293 82.7616 8.54994 82.7616 9.54605L75.1098 9.67056C75.0953 11.3307 75.3779 12.6243 75.9576 13.5512C76.5518 14.4782 77.4648 14.9416 78.6966 14.9416C79.3632 14.9416 80.0443 14.7756 80.74 14.4436C81.4501 14.1115 81.9935 13.7034 82.3703 13.2192L82.892 13.6342C82.3413 14.4367 81.624 15.0316 80.74 15.4189C79.8704 15.8063 79.0154 16 78.1749 16C77.1749 16 76.2692 15.7786 75.4576 15.3359C74.6606 14.8794 74.0302 14.2361 73.5664 13.406C73.1027 12.562 72.8708 11.5936 72.8708 10.5006C72.8708 9.53221 73.1027 8.62603 73.5664 7.7821C74.0302 6.92434 74.675 6.23952 75.5011 5.72763C76.3416 5.21574 77.2909 4.95979 78.3488 4.95979ZM78.3705 5.76913C76.5735 5.76913 75.5083 6.77908 75.175 8.79896H80.7182C80.7182 7.96887 80.5226 7.25638 80.1313 6.66148C79.74 6.06658 79.1531 5.76913 78.3705 5.76913Z" fill="#2F3438"/>
<path d="M91.4783 4.95979C91.9131 4.95979 92.2754 5.07047 92.5652 5.29183C92.8551 5.51319 93 5.83831 93 6.26719C93 6.48854 92.9058 6.7099 92.7174 6.93126C92.5435 7.15262 92.2899 7.26329 91.9566 7.26329C91.6377 7.26329 91.3769 7.15262 91.174 6.93126C90.9711 6.69607 90.8914 6.41937 90.9349 6.10117C90.3842 6.08733 89.8262 6.28794 89.2611 6.70298C88.7104 7.11803 88.2394 7.67142 87.8481 8.36316L87.8698 13.4682C87.8698 14.0908 87.8409 14.5612 87.7829 14.8794L89.1524 14.8171V15.668H84.6961V15.0454C85.1164 15.0454 85.4134 14.9486 85.5873 14.7549C85.7757 14.5473 85.8844 14.2914 85.9134 13.987C85.9569 13.6688 85.9786 13.1777 85.9786 12.5136V7.7821C85.9786 7.20104 86.0076 6.75141 86.0656 6.4332L84.5222 6.49546V5.64462H85.1961C85.7468 5.64462 86.1453 5.60311 86.3916 5.5201C86.638 5.42326 86.8699 5.27799 87.0873 5.08431H87.7177C87.7756 5.62387 87.8119 6.30869 87.8264 7.13878C88.1887 6.57155 88.7031 6.06658 89.3698 5.62387C90.0509 5.18115 90.7537 4.95979 91.4783 4.95979Z" fill="#2F3438"/>
</svg>
