<svg width="107" height="21" viewBox="0 0 107 21" fill="none" xmlns="http://www.w3.org/2000/svg">
<path d="M12.8103 6.71701H11.9906C11.9906 5.35284 11.6926 4.42122 11.0965 3.92214C10.517 3.42305 9.69732 3.19015 8.63758 3.22342L6.50156 3.27333C5.90546 3.28996 5.47494 3.40642 5.21001 3.62269C4.94508 3.82232 4.77949 4.11345 4.71326 4.49608C4.64703 4.86208 4.61391 5.44434 4.61391 6.24288V10.2356L9.28336 10.2605L9.1095 8.11444H10.2023V13.3548H9.38271C9.38271 12.7393 9.3082 12.2735 9.15917 11.9574C9.01015 11.6247 8.77833 11.4084 8.46372 11.3086C8.16567 11.1921 7.74343 11.1339 7.19701 11.1339L6.42705 11.1589L4.61391 11.2337V16.9482C4.61391 17.8133 4.58907 18.4621 4.5394 18.8947L9.28336 18.8198C10.4424 18.8032 11.3283 18.512 11.941 17.9464C12.5536 17.3641 12.86 16.366 12.86 14.9519H13.7044L13.5554 19.818H0.739258V18.9945C1.3188 18.9778 1.73276 18.8448 1.98113 18.5952C2.22951 18.3457 2.37025 18.0545 2.40337 17.7218C2.43649 17.3725 2.45305 16.7736 2.45305 15.9251V5.14489C2.45305 4.44617 2.47788 3.84727 2.52756 3.34819L0.739258 3.44801V2.35002H12.6861L12.8103 6.71701Z" fill="#2F3438"/>
<path d="M24.8202 10.9592V12.6062L16.0029 12.706V10.9592H24.8202Z" fill="#2F3438"/>
<path d="M40.2146 7.61536H39.2708C39.2542 6.56728 39.1466 5.73548 38.9479 5.11994C38.7657 4.48777 38.4429 4.02195 37.9792 3.7225C37.5321 3.40642 36.8864 3.24837 36.0419 3.24837H33.9307L33.9059 16.8484C33.9059 17.7301 33.881 18.3873 33.8314 18.8198L35.8929 18.72V19.818H30.0561V18.9945C30.7681 18.9612 31.2234 18.7616 31.4221 18.3956C31.6374 18.0296 31.745 17.464 31.745 16.6987V15.9251L31.7698 3.27333L29.2116 3.29828C28.185 3.29828 27.4481 3.64764 27.001 4.34636C26.5705 5.02844 26.3553 6.11811 26.3553 7.61536H25.4363L25.5853 2.35002H40.0656L40.2146 7.61536Z" fill="#2F3438"/>
<path d="M46.8666 6.9416C47.8104 6.9416 48.6632 7.14955 49.4248 7.56545C50.1865 7.98136 50.7909 8.60521 51.238 9.43702C51.6851 10.2522 51.9086 11.2587 51.9086 12.4565L43.1658 12.6062C43.1492 14.6025 43.4721 16.158 44.1345 17.2726C44.8134 18.3873 45.8565 18.9446 47.264 18.9446C48.0257 18.9446 48.8039 18.7449 49.5987 18.3457C50.4101 17.9464 51.031 17.4556 51.4615 16.8734L52.0576 17.3725C51.4284 18.3374 50.6088 19.0527 49.5987 19.5185C48.6052 19.9843 47.6283 20.2172 46.6679 20.2172C45.5254 20.2172 44.4905 19.9511 43.5632 19.4187C42.6525 18.8697 41.9322 18.0961 41.4023 17.098C40.8725 16.0832 40.6075 14.9186 40.6075 13.6044C40.6075 12.4398 40.8725 11.3502 41.4023 10.3354C41.9322 9.30393 42.669 8.48044 43.6129 7.8649C44.5733 7.24937 45.6578 6.9416 46.8666 6.9416ZM46.8914 7.91481C44.8382 7.91481 43.6211 9.12925 43.2403 11.5581H49.5739C49.5739 10.56 49.3503 9.7032 48.9033 8.98784C48.4562 8.27249 47.7856 7.91481 46.8914 7.91481Z" fill="#2F3438"/>
<path d="M61.7441 6.9416C63.1846 6.9416 64.2361 7.39909 64.8984 8.31408C65.5608 9.21243 65.8919 10.6182 65.8919 12.5313V17.1728C65.8919 17.9215 65.8588 18.4871 65.7926 18.8697L67.3573 18.7948V19.818H62.2905V19.0693C62.7707 19.0693 63.1101 18.9529 63.3088 18.72C63.5241 18.4704 63.6483 18.1627 63.6814 17.7967C63.7311 17.414 63.7559 16.8235 63.7559 16.0249V12.5313C63.7393 11.1006 63.5075 10.0276 63.0604 9.31225C62.6134 8.58026 61.9096 8.21426 60.9493 8.21426C60.3532 8.21426 59.757 8.36399 59.1609 8.66344C58.5814 8.96289 58.1012 9.35384 57.7204 9.83629C57.7369 10.0193 57.7452 10.3437 57.7452 10.8095L57.7204 17.1728C57.7204 17.9215 57.6873 18.4871 57.621 18.8697L59.1858 18.7948V19.818H54.1189V19.0693C54.5991 19.0693 54.9386 18.9529 55.1373 18.72C55.3525 18.4704 55.4767 18.171 55.5098 17.8216C55.543 17.4556 55.5678 16.8567 55.5844 16.0249L55.6092 10.3354C55.6092 9.63665 55.6423 9.09598 55.7085 8.71335L53.9451 8.81316V7.76509C54.922 7.76509 55.5926 7.71518 55.9569 7.61536C56.3212 7.49891 56.6275 7.32423 56.8759 7.09132H57.5962C57.6293 7.40741 57.6624 7.91481 57.6955 8.61353C58.2585 8.11445 58.896 7.71518 59.608 7.41573C60.3366 7.09964 61.0486 6.9416 61.7441 6.9416Z" fill="#2F3438"/>
<path d="M80.5565 17.1728C80.5565 17.7052 80.5234 18.2708 80.4572 18.8697L82.2206 18.7699V19.818H78.6689C78.5861 19.3688 78.5281 18.9363 78.495 18.5204C78.0148 19.0527 77.427 19.4686 76.7315 19.7681C76.0527 20.0675 75.3158 20.2172 74.521 20.2172C73.4944 20.2172 72.5754 19.9594 71.764 19.4437C70.9527 18.9279 70.3152 18.1959 69.8516 17.2477C69.3879 16.2994 69.1561 15.1931 69.1561 13.9288C69.1561 12.5979 69.4293 11.4001 69.9757 10.3354C70.5222 9.27066 71.2756 8.43885 72.236 7.83995C73.2129 7.24105 74.314 6.9416 75.5393 6.9416C76.0527 6.9416 76.5742 7.01646 77.1041 7.16618C77.6505 7.29927 78.0976 7.45732 78.4453 7.64031V4.22159C78.4453 3.58941 78.4702 3.04874 78.5198 2.59956L76.7564 2.69938V1.6513C77.7333 1.6513 78.4288 1.59308 78.8427 1.47662C79.2733 1.36017 79.6044 1.19381 79.8362 0.977539H80.5565V17.1728ZM75.6884 7.91481C74.4962 7.91481 73.5358 8.4139 72.8072 9.41206C72.0787 10.3936 71.7144 11.6995 71.7144 13.3299C71.7144 15.0268 72.0373 16.3992 72.683 17.4473C73.3288 18.4788 74.2395 18.9945 75.4152 18.9945C75.945 18.9945 76.4832 18.8448 77.0296 18.5453C77.5926 18.2292 78.0645 17.83 78.4453 17.3475C78.4288 17.0813 78.4205 16.6238 78.4205 15.975L78.4453 8.78821C77.6671 8.20594 76.7481 7.91481 75.6884 7.91481Z" fill="#2F3438"/>
<path d="M90.2595 6.9416C91.2033 6.9416 92.056 7.14955 92.8177 7.56545C93.5794 7.98136 94.1838 8.60521 94.6309 9.43702C95.0779 10.2522 95.3015 11.2587 95.3015 12.4565L86.5587 12.6062C86.5421 14.6025 86.865 16.158 87.5273 17.2726C88.2062 18.3873 89.2494 18.9446 90.6569 18.9446C91.4185 18.9446 92.1968 18.7449 92.9916 18.3457C93.8029 17.9464 94.4239 17.4556 94.8544 16.8734L95.4505 17.3725C94.8213 18.3374 94.0016 19.0527 92.9916 19.5185C91.9981 19.9843 91.0211 20.2172 90.0608 20.2172C88.9182 20.2172 87.8833 19.9511 86.9561 19.4187C86.0453 18.8697 85.3251 18.0961 84.7952 17.098C84.2653 16.0832 84.0004 14.9186 84.0004 13.6044C84.0004 12.4398 84.2653 11.3502 84.7952 10.3354C85.3251 9.30393 86.0619 8.48044 87.0057 7.8649C87.9661 7.24937 89.0507 6.9416 90.2595 6.9416ZM90.2843 7.91481C88.2311 7.91481 87.014 9.12925 86.6332 11.5581H92.9667C92.9667 10.56 92.7432 9.7032 92.2961 8.98784C91.8491 8.27249 91.1784 7.91481 90.2843 7.91481Z" fill="#2F3438"/>
<path d="M105.261 6.9416C105.758 6.9416 106.172 7.07469 106.503 7.34086C106.834 7.60704 107 7.99799 107 8.51371C107 8.77989 106.892 9.04607 106.677 9.31225C106.478 9.57843 106.188 9.71151 105.808 9.71151C105.443 9.71151 105.145 9.57843 104.913 9.31225C104.682 9.02943 104.59 8.69671 104.64 8.31408C104.011 8.29744 103.373 8.53867 102.728 9.03775C102.098 9.53683 101.56 10.2023 101.113 11.0341L101.138 17.1728C101.138 17.9215 101.105 18.4871 101.039 18.8697L102.604 18.7948V19.818H97.5118V19.0693C97.992 19.0693 98.3315 18.9529 98.5302 18.72C98.7454 18.4704 98.8696 18.1627 98.9027 17.7967C98.9524 17.414 98.9772 16.8235 98.9772 16.0249V10.3354C98.9772 9.63665 99.0103 9.09598 99.0766 8.71335L97.3131 8.78821V7.76509H98.0831C98.7123 7.76509 99.1676 7.71518 99.4491 7.61536C99.7306 7.49891 99.9956 7.32423 100.244 7.09132H100.964C101.03 7.74013 101.072 8.56362 101.088 9.56179C101.502 8.87971 102.09 8.27249 102.852 7.74013C103.63 7.20778 104.433 6.9416 105.261 6.9416Z" fill="#2F3438"/>
</svg>
