<svg width="76" height="13" viewBox="0 0 76 13" fill="none" xmlns="http://www.w3.org/2000/svg">
<path d="M8.63348 3.87808H8.04726C8.04726 2.95633 7.83409 2.32685 7.40774 1.98962C6.99324 1.6524 6.40702 1.49503 5.64907 1.51751L4.12133 1.55123C3.69499 1.56247 3.38707 1.64116 3.19759 1.78729C3.0081 1.92218 2.88967 2.11889 2.8423 2.37743C2.79493 2.62473 2.77124 3.01816 2.77124 3.55772V6.25551L6.11094 6.27237L5.98659 4.82231H6.76822V8.36316H6.182C6.182 7.94725 6.12871 7.63251 6.02212 7.41894C5.91554 7.19412 5.74973 7.04799 5.52472 6.98055C5.31155 6.90186 5.00955 6.86252 4.61874 6.86252L4.06804 6.87938L2.77124 6.92996V10.7912C2.77124 11.3757 2.75348 11.8141 2.71795 12.1064L6.11094 12.0558C6.93995 12.0445 7.57354 11.8478 8.01173 11.4656C8.44992 11.0722 8.66901 10.3978 8.66901 9.44228H9.273L9.16642 12.7302H0V12.1738C0.414502 12.1626 0.710575 12.0726 0.888218 11.904C1.06586 11.7354 1.16653 11.5387 1.19021 11.3139C1.2139 11.0778 1.22574 10.6732 1.22574 10.0999V2.81582C1.22574 2.34371 1.24351 1.93904 1.27903 1.60182L0 1.66926V0.927367H8.54466L8.63348 3.87808Z" fill="white"/>
<path d="M17.2233 6.74449V7.85733L10.9169 7.92477V6.74449H17.2233Z" fill="white"/>
<path d="M28.2337 4.48508H27.5586C27.5468 3.77691 27.4698 3.21487 27.3277 2.79896C27.1974 2.37181 26.9665 2.05707 26.6349 1.85473C26.3151 1.64116 25.8533 1.53437 25.2493 1.53437H23.7393L23.7215 10.7237C23.7215 11.3195 23.7038 11.7635 23.6682 12.0558L25.1427 11.9883V12.7302H20.9681V12.1738C21.4773 12.1513 21.803 12.0164 21.9451 11.7691C22.0991 11.5218 22.176 11.1396 22.176 10.6226V10.0999L22.1938 1.55123L20.3641 1.56809C19.6298 1.56809 19.1028 1.80415 18.783 2.27626C18.4751 2.73714 18.3212 3.47341 18.3212 4.48508H17.6639L17.7705 0.927367H28.1271L28.2337 4.48508Z" fill="white"/>
<path d="M32.9913 4.02983C33.6664 4.02983 34.2763 4.17034 34.8211 4.45136C35.3659 4.73238 35.7981 5.15391 36.1179 5.71595C36.4376 6.26675 36.5975 6.94682 36.5975 7.75616L30.3445 7.85733C30.3326 9.20623 30.5636 10.2572 31.0373 11.0104C31.5228 11.7635 32.2689 12.1401 33.2756 12.1401C33.8204 12.1401 34.377 12.0052 34.9454 11.7354C35.5257 11.4656 35.9698 11.134 36.2778 10.7406L36.7041 11.0778C36.2541 11.7298 35.6678 12.2131 34.9454 12.5279C34.2349 12.8426 33.5361 13 32.8492 13C32.0321 13 31.2919 12.8201 30.6287 12.4604C29.9773 12.0895 29.4622 11.5668 29.0832 10.8923C28.7042 10.2067 28.5147 9.4198 28.5147 8.53178C28.5147 7.74492 28.7042 7.00865 29.0832 6.32296C29.4622 5.62603 29.9892 5.06961 30.6642 4.6537C31.3511 4.23779 32.1268 4.02983 32.9913 4.02983ZM33.0091 4.68742C31.5406 4.68742 30.6701 5.508 30.3978 7.14916H34.9277C34.9277 6.47471 34.7678 5.89581 34.448 5.41245C34.1283 4.9291 33.6486 4.68742 33.0091 4.68742Z" fill="white"/>
<path d="M43.6321 4.02983C44.6624 4.02983 45.4144 4.33895 45.8881 4.9572C46.3619 5.5642 46.5987 6.51405 46.5987 7.80675V10.9429C46.5987 11.4488 46.575 11.831 46.5277 12.0895L47.6468 12.0389V12.7302H44.0229V12.2244C44.3663 12.2244 44.6091 12.1457 44.7512 11.9883C44.9052 11.8197 44.994 11.6118 45.0177 11.3645C45.0532 11.1059 45.071 10.7069 45.071 10.1673V7.80675C45.0591 6.84003 44.8933 6.115 44.5736 5.63165C44.2538 5.13705 43.7505 4.88975 43.0636 4.88975C42.6373 4.88975 42.2109 4.99092 41.7846 5.19326C41.3701 5.39559 41.0266 5.65975 40.7542 5.98573C40.7661 6.10938 40.772 6.32858 40.772 6.64332L40.7542 10.9429C40.7542 11.4488 40.7306 11.831 40.6832 12.0895L41.8023 12.0389V12.7302H38.1784V12.2244C38.5219 12.2244 38.7646 12.1457 38.9067 11.9883C39.0607 11.8197 39.1495 11.6174 39.1732 11.3813C39.1969 11.134 39.2147 10.7294 39.2265 10.1673L39.2443 6.32296C39.2443 5.85084 39.268 5.48552 39.3153 5.22698L38.0541 5.29442V4.58625C38.7528 4.58625 39.2324 4.55253 39.493 4.48508C39.7535 4.4064 39.9726 4.28837 40.1502 4.131H40.6654C40.6891 4.34457 40.7128 4.68742 40.7365 5.15953C41.1391 4.82231 41.5951 4.55253 42.1043 4.35019C42.6254 4.13662 43.1347 4.02983 43.6321 4.02983Z" fill="white"/>
<path d="M57.0872 10.9429C57.0872 11.3026 57.0635 11.6848 57.0161 12.0895L58.2774 12.022V12.7302H55.7371C55.6779 12.4267 55.6364 12.1345 55.6127 11.8534C55.2693 12.2131 54.8489 12.4942 54.3515 12.6965C53.8659 12.8988 53.3389 13 52.7704 13C52.0362 13 51.3789 12.8258 50.7986 12.4773C50.2183 12.1288 49.7623 11.6342 49.4307 10.9935C49.0991 10.3528 48.9333 9.60527 48.9333 8.75097C48.9333 7.85171 49.1287 7.04237 49.5196 6.32296C49.9104 5.60354 50.4492 5.0415 51.1361 4.63684C51.8349 4.23217 52.6224 4.02983 53.4988 4.02983C53.8659 4.02983 54.239 4.08042 54.6179 4.18158C55.0088 4.27151 55.3285 4.3783 55.5772 4.50195V2.19196C55.5772 1.76481 55.595 1.39948 55.6305 1.09598L54.3692 1.16342V0.455253C55.068 0.455253 55.5654 0.41591 55.8615 0.337224C56.1694 0.258539 56.4062 0.146131 56.572 0H57.0872V10.9429ZM53.6054 4.68742C52.7527 4.68742 52.0658 5.02464 51.5447 5.69909C51.0236 6.3623 50.7631 7.2447 50.7631 8.3463C50.7631 9.49287 50.994 10.4202 51.4559 11.1284C51.9178 11.8253 52.5691 12.1738 53.41 12.1738C53.7889 12.1738 54.1738 12.0726 54.5647 11.8703C54.9673 11.6567 55.3048 11.3869 55.5772 11.061C55.5654 10.8811 55.5595 10.572 55.5595 10.1336L55.5772 5.27756C55.0206 4.88413 54.3633 4.68742 53.6054 4.68742Z" fill="white"/>
<path d="M64.027 4.02983C64.702 4.02983 65.3119 4.17034 65.8567 4.45136C66.4015 4.73238 66.8337 5.15391 67.1535 5.71595C67.4732 6.26675 67.6331 6.94682 67.6331 7.75616L61.3801 7.85733C61.3682 9.20623 61.5992 10.2572 62.0729 11.0104C62.5584 11.7635 63.3045 12.1401 64.3112 12.1401C64.856 12.1401 65.4126 12.0052 65.981 11.7354C66.5613 11.4656 67.0054 11.134 67.3134 10.7406L67.7397 11.0778C67.2897 11.7298 66.7035 12.2131 65.981 12.5279C65.2705 12.8426 64.5717 13 63.8848 13C63.0677 13 62.3275 12.8201 61.6643 12.4604C61.0129 12.0895 60.4978 11.5668 60.1188 10.8923C59.7398 10.2067 59.5503 9.4198 59.5503 8.53178C59.5503 7.74492 59.7398 7.00865 60.1188 6.32296C60.4978 5.62603 61.0248 5.06961 61.6998 4.6537C62.3867 4.23779 63.1624 4.02983 64.027 4.02983ZM64.0447 4.68742C62.5762 4.68742 61.7057 5.508 61.4334 7.14916H65.9633C65.9633 6.47471 65.8034 5.89581 65.4836 5.41245C65.1639 4.9291 64.6842 4.68742 64.0447 4.68742Z" fill="white"/>
<path d="M74.7565 4.02983C75.1118 4.02983 75.4079 4.11976 75.6447 4.29961C75.8816 4.47946 76 4.74362 76 5.09209C76 5.27194 75.923 5.45179 75.7691 5.63165C75.6269 5.8115 75.4197 5.90143 75.1473 5.90143C74.8868 5.90143 74.6736 5.8115 74.5078 5.63165C74.342 5.44055 74.2769 5.21574 74.3124 4.9572C73.8624 4.94596 73.4064 5.10895 72.9445 5.44617C72.4945 5.7834 72.1096 6.23303 71.7898 6.79507L71.8076 10.9429C71.8076 11.4488 71.7839 11.831 71.7365 12.0895L72.8557 12.0389V12.7302H69.214V12.2244C69.5575 12.2244 69.8002 12.1457 69.9424 11.9883C70.0963 11.8197 70.1851 11.6118 70.2088 11.3645C70.2443 11.1059 70.2621 10.7069 70.2621 10.1673V6.32296C70.2621 5.85084 70.2858 5.48552 70.3332 5.22698L69.0719 5.27756V4.58625H69.6226C70.0726 4.58625 70.3983 4.55253 70.5996 4.48508C70.801 4.4064 70.9905 4.28837 71.1681 4.131H71.6833C71.7306 4.56939 71.7602 5.12581 71.7721 5.80026C72.0682 5.33939 72.4886 4.9291 73.0334 4.56939C73.59 4.20968 74.1643 4.02983 74.7565 4.02983Z" fill="white"/>
</svg>
