<svg width="106" height="20" viewBox="0 0 106 20" fill="none" xmlns="http://www.w3.org/2000/svg">
<path d="M12.869 6.29577H12.0586C12.0586 4.95397 11.7639 4.03762 11.1745 3.54672C10.6014 3.05581 9.79101 2.82673 8.74318 2.85945L6.63116 2.90854C6.04175 2.92491 5.61607 3.03945 5.35412 3.25217C5.09216 3.44854 4.92844 3.73489 4.86295 4.11125C4.79746 4.47125 4.76471 5.04397 4.76471 5.82941V9.75663L9.3817 9.78118L9.20979 7.6703H10.2904V12.8248H9.47994C9.47994 12.2193 9.40626 11.7612 9.25891 11.4502C9.11156 11.123 8.88235 10.9103 8.57127 10.8121C8.27657 10.6975 7.85908 10.6403 7.31879 10.6403L6.55748 10.6648L4.76471 10.7384V16.3593C4.76471 17.2102 4.74015 17.8483 4.69104 18.2738L9.3817 18.2002C10.5278 18.1838 11.4037 17.8974 12.0095 17.3411C12.6152 16.7684 12.9181 15.7866 12.9181 14.3957H13.7531L13.6058 19.182H0.933594V18.372C1.50662 18.3556 1.91593 18.2247 2.16152 17.9793C2.4071 17.7338 2.54627 17.4474 2.57901 17.1202C2.61176 16.7765 2.62813 16.1875 2.62813 15.3529V4.74943C2.62813 4.06216 2.65269 3.47308 2.7018 2.98218L0.933594 3.08036V2.00037H12.7462L12.869 6.29577Z" fill="white"/>
<path d="M24.744 10.4684V12.0884L16.0257 12.1866V10.4684H24.744Z" fill="white"/>
<path d="M39.9654 7.1794H39.0322C39.0158 6.1485 38.9094 5.33033 38.7129 4.72488C38.5329 4.10307 38.2136 3.6449 37.7552 3.35036C37.3131 3.03945 36.6746 2.884 35.8396 2.884H33.7521L33.7276 16.2611C33.7276 17.1284 33.703 17.7747 33.6539 18.2002L35.6923 18.102V19.182H29.921V18.372C30.625 18.3392 31.0753 18.1429 31.2717 17.7829C31.4846 17.4229 31.591 16.8665 31.591 16.1138V15.3529L31.6156 2.90854L29.086 2.93309C28.0709 2.93309 27.3424 3.27672 26.9003 3.96398C26.4746 4.63488 26.2618 5.70669 26.2618 7.1794H25.3531L25.5005 2.00037H39.8181L39.9654 7.1794Z" fill="white"/>
<path d="M46.5427 6.51668C47.4759 6.51668 48.3191 6.72122 49.0722 7.1303C49.8253 7.53939 50.4229 8.15302 50.865 8.97119C51.307 9.773 51.528 10.763 51.528 11.9412L42.8835 12.0884C42.8671 14.052 43.1864 15.582 43.8413 16.6784C44.5125 17.7747 45.544 18.3229 46.9356 18.3229C47.6887 18.3229 48.4582 18.1265 49.2441 17.7338C50.0464 17.3411 50.6603 16.8584 51.086 16.2856L51.6754 16.7765C51.0533 17.7256 50.2428 18.4292 49.2441 18.8874C48.2618 19.3456 47.2958 19.5747 46.3462 19.5747C45.2165 19.5747 44.1933 19.3129 43.2764 18.7892C42.3759 18.2493 41.6637 17.4883 41.1398 16.5065C40.6159 15.5084 40.354 14.3629 40.354 13.0702C40.354 11.9248 40.6159 10.853 41.1398 9.85481C41.6637 8.84028 42.3923 8.03029 43.3255 7.42485C44.2751 6.8194 45.3475 6.51668 46.5427 6.51668ZM46.5672 7.47394C44.5371 7.47394 43.3337 8.66847 42.9571 11.0575H49.2196C49.2196 10.0757 48.9985 9.23301 48.5565 8.52938C48.1144 7.82575 47.4513 7.47394 46.5672 7.47394Z" fill="white"/>
<path d="M61.253 6.51668C62.6774 6.51668 63.717 6.96667 64.3719 7.86666C65.0268 8.75028 65.3543 10.133 65.3543 12.0148V16.5802C65.3543 17.3165 65.3215 17.8729 65.256 18.2493L66.8032 18.1756V19.182H61.7933V18.4456C62.2681 18.4456 62.6037 18.3311 62.8002 18.102C63.013 17.8565 63.1358 17.5538 63.1686 17.1938C63.2177 16.8174 63.2422 16.2365 63.2422 15.4511V12.0148C63.2259 10.6075 62.9967 9.55209 62.5546 8.84846C62.1126 8.12847 61.4167 7.76848 60.4671 7.76848C59.8777 7.76848 59.2883 7.91575 58.6989 8.21029C58.1259 8.50483 57.6511 8.88937 57.2745 9.36391C57.2909 9.54391 57.2991 9.863 57.2991 10.3212L57.2745 16.5802C57.2745 17.3165 57.2418 17.8729 57.1763 18.2493L58.7235 18.1756V19.182H53.7136V18.4456C54.1884 18.4456 54.524 18.3311 54.7205 18.102C54.9333 17.8565 55.0561 17.562 55.0888 17.2184C55.1216 16.8584 55.1461 16.2693 55.1625 15.4511L55.1871 9.85481C55.1871 9.16755 55.2198 8.63574 55.2853 8.25938L53.5417 8.35756V7.32667C54.5076 7.32667 55.1707 7.27758 55.5309 7.1794C55.8911 7.06485 56.194 6.89304 56.4395 6.66395H57.1517C57.1845 6.97485 57.2172 7.47394 57.25 8.1612C57.8066 7.6703 58.437 7.27758 59.141 6.98303C59.8614 6.67213 60.5654 6.51668 61.253 6.51668Z" fill="white"/>
<path d="M79.8541 16.5802C79.8541 17.1038 79.8214 17.6602 79.7559 18.2493L81.4995 18.1511V19.182H77.9877C77.9058 18.7402 77.8485 18.3147 77.8158 17.9056C77.341 18.4292 76.7598 18.8383 76.0721 19.1329C75.4009 19.4274 74.6723 19.5747 73.8864 19.5747C72.8713 19.5747 71.9627 19.3211 71.1604 18.8138C70.3582 18.3065 69.7278 17.5865 69.2694 16.6538C68.811 15.7211 68.5818 14.6329 68.5818 13.3893C68.5818 12.0802 68.8519 10.9021 69.3922 9.85481C69.9325 8.80756 70.6774 7.98939 71.627 7.4003C72.593 6.81122 73.6818 6.51668 74.8933 6.51668C75.4009 6.51668 75.9166 6.59031 76.4405 6.73758C76.9808 6.86849 77.4228 7.02394 77.7667 7.20394V3.84126C77.7667 3.21945 77.7912 2.68764 77.8403 2.24582L76.0967 2.34401V1.31311C77.0626 1.31311 77.7503 1.25584 78.1596 1.14129C78.5853 1.02675 78.9127 0.863115 79.1419 0.650391H79.8541V16.5802ZM75.0407 7.47394C73.8619 7.47394 72.9123 7.96484 72.1919 8.94665C71.4715 9.91209 71.1113 11.1966 71.1113 12.8002C71.1113 14.4693 71.4306 15.8193 72.0691 16.8502C72.7076 17.8647 73.6081 18.372 74.7705 18.372C75.2944 18.372 75.8265 18.2247 76.3668 17.9302C76.9235 17.6193 77.3901 17.2265 77.7667 16.752C77.7503 16.4902 77.7421 16.0402 77.7421 15.402L77.7667 8.33302C76.9972 7.7603 76.0885 7.47394 75.0407 7.47394Z" fill="white"/>
<path d="M89.448 6.51668C90.3813 6.51668 91.2244 6.72122 91.9776 7.1303C92.7307 7.53939 93.3283 8.15302 93.7703 8.97119C94.2124 9.773 94.4334 10.763 94.4334 11.9412L85.7888 12.0884C85.7725 14.052 86.0917 15.582 86.7466 16.6784C87.4179 17.7747 88.4493 18.3229 89.841 18.3229C90.5941 18.3229 91.3636 18.1265 92.1495 17.7338C92.9517 17.3411 93.5657 16.8584 93.9914 16.2856L94.5808 16.7765C93.9586 17.7256 93.1482 18.4292 92.1495 18.8874C91.1671 19.3456 90.2012 19.5747 89.2516 19.5747C88.1219 19.5747 87.0986 19.3129 86.1818 18.7892C85.2813 18.2493 84.5691 17.4883 84.0452 16.5065C83.5213 15.5084 83.2593 14.3629 83.2593 13.0702C83.2593 11.9248 83.5213 10.853 84.0452 9.85481C84.5691 8.84028 85.2977 8.03029 86.2309 7.42485C87.1805 6.8194 88.2529 6.51668 89.448 6.51668ZM89.4726 7.47394C87.4424 7.47394 86.2391 8.66847 85.8625 11.0575H92.1249C92.1249 10.0757 91.9039 9.23301 91.4618 8.52938C91.0198 7.82575 90.3567 7.47394 89.4726 7.47394Z" fill="white"/>
<path d="M104.281 6.51668C104.772 6.51668 105.182 6.64758 105.509 6.9094C105.837 7.17121 106 7.55575 106 8.06302C106 8.32483 105.894 8.58665 105.681 8.84846C105.485 9.11028 105.198 9.24119 104.821 9.24119C104.461 9.24119 104.167 9.11028 103.937 8.84846C103.708 8.57029 103.618 8.24302 103.667 7.86666C103.045 7.8503 102.415 8.08757 101.776 8.57847C101.154 9.06937 100.622 9.72391 100.18 10.5421L100.204 16.5802C100.204 17.3165 100.172 17.8729 100.106 18.2493L101.653 18.1756V19.182H96.6189V18.4456C97.0937 18.4456 97.4294 18.3311 97.6258 18.102C97.8387 17.8565 97.9615 17.5538 97.9942 17.1938C98.0433 16.8174 98.0679 16.2365 98.0679 15.4511V9.85481C98.0679 9.16755 98.1006 8.63574 98.1661 8.25938L96.4225 8.33302V7.32667H97.1838C97.8059 7.32667 98.2561 7.27758 98.5345 7.1794C98.8128 7.06485 99.0748 6.89304 99.3204 6.66395H100.033C100.098 7.30212 100.139 8.11211 100.155 9.09391C100.565 8.42302 101.146 7.82575 101.899 7.30212C102.668 6.77849 103.463 6.51668 104.281 6.51668Z" fill="white"/>
</svg>
