<svg width="123" height="45" viewBox="0 0 123 45" fill="none" xmlns="http://www.w3.org/2000/svg">
<path d="M55.6335 18.8781H55.0473C55.0473 17.9563 54.8341 17.3268 54.4077 16.9896C53.9932 16.6524 53.407 16.495 52.6491 16.5175L51.1213 16.5512C50.695 16.5625 50.3871 16.6412 50.1976 16.7873C50.0081 16.9222 49.8897 17.1189 49.8423 17.3774C49.7949 17.6247 49.7712 18.0182 49.7712 18.5577V21.2555L53.1109 21.2724L52.9866 19.8223H53.7682V23.3632H53.182C53.182 22.9473 53.1287 22.6325 53.0221 22.4189C52.9155 22.1941 52.7497 22.048 52.5247 21.9805C52.3115 21.9019 52.0096 21.8625 51.6187 21.8625L51.068 21.8794L49.7712 21.93V25.7912C49.7712 26.3757 49.7535 26.8141 49.7179 27.1064L53.1109 27.0558C53.9399 27.0445 54.5735 26.8478 55.0117 26.4656C55.4499 26.0722 55.669 25.3978 55.669 24.4423H56.273L56.1664 27.7302H47V27.1738C47.4145 27.1626 47.7106 27.0726 47.8882 26.904C48.0659 26.7354 48.1665 26.5387 48.1902 26.3139C48.2139 26.0778 48.2257 25.6732 48.2257 25.0999V17.8158C48.2257 17.3437 48.2435 16.939 48.279 16.6018L47 16.6693V15.9274H55.5447L55.6335 18.8781Z" fill="white"/>
<path d="M64.2233 21.7445V22.8573L57.9169 22.9248V21.7445H64.2233Z" fill="white"/>
<path d="M75.2337 19.4851H74.5586C74.5468 18.7769 74.4698 18.2149 74.3277 17.799C74.1974 17.3718 73.9665 17.0571 73.6349 16.8547C73.3151 16.6412 72.8533 16.5344 72.2493 16.5344H70.7393L70.7215 25.7237C70.7215 26.3195 70.7038 26.7635 70.6682 27.0558L72.1427 26.9883V27.7302H67.9681V27.1738C68.4773 27.1513 68.803 27.0164 68.9451 26.7691C69.0991 26.5218 69.176 26.1396 69.176 25.6226V25.0999L69.1938 16.5512L67.3641 16.5681C66.6298 16.5681 66.1028 16.8042 65.783 17.2763C65.4751 17.7371 65.3212 18.4734 65.3212 19.4851H64.6639L64.7705 15.9274H75.1271L75.2337 19.4851Z" fill="white"/>
<path d="M79.9913 19.0298C80.6664 19.0298 81.2763 19.1703 81.8211 19.4514C82.3659 19.7324 82.7981 20.1539 83.1179 20.716C83.4376 21.2668 83.5975 21.9468 83.5975 22.7562L77.3445 22.8573C77.3326 24.2062 77.5636 25.2572 78.0373 26.0104C78.5228 26.7635 79.2689 27.1401 80.2756 27.1401C80.8204 27.1401 81.377 27.0052 81.9454 26.7354C82.5257 26.4656 82.9698 26.134 83.2778 25.7406L83.7041 26.0778C83.2541 26.7298 82.6678 27.2131 81.9454 27.5279C81.2349 27.8426 80.5361 28 79.8492 28C79.0321 28 78.2919 27.8201 77.6287 27.4604C76.9773 27.0895 76.4622 26.5668 76.0832 25.8923C75.7042 25.2067 75.5147 24.4198 75.5147 23.5318C75.5147 22.7449 75.7042 22.0086 76.0832 21.323C76.4622 20.626 76.9892 20.0696 77.6642 19.6537C78.3511 19.2378 79.1268 19.0298 79.9913 19.0298ZM80.0091 19.6874C78.5406 19.6874 77.6701 20.508 77.3978 22.1492H81.9277C81.9277 21.4747 81.7678 20.8958 81.448 20.4125C81.1283 19.9291 80.6486 19.6874 80.0091 19.6874Z" fill="white"/>
<path d="M90.6321 19.0298C91.6624 19.0298 92.4144 19.339 92.8881 19.9572C93.3619 20.5642 93.5987 21.5141 93.5987 22.8067V25.9429C93.5987 26.4488 93.575 26.831 93.5277 27.0895L94.6468 27.0389V27.7302H91.0229V27.2244C91.3663 27.2244 91.6091 27.1457 91.7512 26.9883C91.9052 26.8197 91.994 26.6118 92.0177 26.3645C92.0532 26.1059 92.071 25.7069 92.071 25.1673V22.8067C92.0591 21.84 91.8933 21.115 91.5736 20.6316C91.2538 20.1371 90.7505 19.8898 90.0636 19.8898C89.6373 19.8898 89.2109 19.9909 88.7846 20.1933C88.3701 20.3956 88.0266 20.6597 87.7542 20.9857C87.7661 21.1094 87.772 21.3286 87.772 21.6433L87.7542 25.9429C87.7542 26.4488 87.7306 26.831 87.6832 27.0895L88.8023 27.0389V27.7302H85.1784V27.2244C85.5219 27.2244 85.7646 27.1457 85.9067 26.9883C86.0607 26.8197 86.1495 26.6174 86.1732 26.3813C86.1969 26.134 86.2147 25.7294 86.2265 25.1673L86.2443 21.323C86.2443 20.8508 86.268 20.4855 86.3153 20.227L85.0541 20.2944V19.5863C85.7528 19.5863 86.2324 19.5525 86.493 19.4851C86.7535 19.4064 86.9726 19.2884 87.1502 19.131H87.6654C87.6891 19.3446 87.7128 19.6874 87.7365 20.1595C88.1391 19.8223 88.5951 19.5525 89.1043 19.3502C89.6254 19.1366 90.1347 19.0298 90.6321 19.0298Z" fill="white"/>
<path d="M104.087 25.9429C104.087 26.3026 104.064 26.6848 104.016 27.0895L105.277 27.022V27.7302H102.737C102.678 27.4267 102.636 27.1345 102.613 26.8534C102.269 27.2131 101.849 27.4942 101.351 27.6965C100.866 27.8988 100.339 28 99.7704 28C99.0362 28 98.3789 27.8258 97.7986 27.4773C97.2183 27.1288 96.7623 26.6342 96.4307 25.9935C96.0991 25.3528 95.9333 24.6053 95.9333 23.751C95.9333 22.8517 96.1287 22.0424 96.5196 21.323C96.9104 20.6035 97.4492 20.0415 98.1361 19.6368C98.8349 19.2322 99.6224 19.0298 100.499 19.0298C100.866 19.0298 101.239 19.0804 101.618 19.1816C102.009 19.2715 102.329 19.3783 102.577 19.5019V17.192C102.577 16.7648 102.595 16.3995 102.631 16.096L101.369 16.1634V15.4553C102.068 15.4553 102.565 15.4159 102.861 15.3372C103.169 15.2585 103.406 15.1461 103.572 15H104.087V25.9429ZM100.605 19.6874C99.7527 19.6874 99.0658 20.0246 98.5447 20.6991C98.0236 21.3623 97.7631 22.2447 97.7631 23.3463C97.7631 24.4929 97.994 25.4202 98.4559 26.1284C98.9178 26.8253 99.5691 27.1738 100.41 27.1738C100.789 27.1738 101.174 27.0726 101.565 26.8703C101.967 26.6567 102.305 26.3869 102.577 26.061C102.565 25.8811 102.559 25.572 102.559 25.1336L102.577 20.2776C102.021 19.8841 101.363 19.6874 100.605 19.6874Z" fill="white"/>
<path d="M111.027 19.0298C111.702 19.0298 112.312 19.1703 112.857 19.4514C113.401 19.7324 113.834 20.1539 114.153 20.716C114.473 21.2668 114.633 21.9468 114.633 22.7562L108.38 22.8573C108.368 24.2062 108.599 25.2572 109.073 26.0104C109.558 26.7635 110.305 27.1401 111.311 27.1401C111.856 27.1401 112.413 27.0052 112.981 26.7354C113.561 26.4656 114.005 26.134 114.313 25.7406L114.74 26.0778C114.29 26.7298 113.703 27.2131 112.981 27.5279C112.27 27.8426 111.572 28 110.885 28C110.068 28 109.327 27.8201 108.664 27.4604C108.013 27.0895 107.498 26.5668 107.119 25.8923C106.74 25.2067 106.55 24.4198 106.55 23.5318C106.55 22.7449 106.74 22.0086 107.119 21.323C107.498 20.626 108.025 20.0696 108.7 19.6537C109.387 19.2378 110.162 19.0298 111.027 19.0298ZM111.045 19.6874C109.576 19.6874 108.706 20.508 108.433 22.1492H112.963C112.963 21.4747 112.803 20.8958 112.484 20.4125C112.164 19.9291 111.684 19.6874 111.045 19.6874Z" fill="white"/>
<path d="M121.756 19.0298C122.112 19.0298 122.408 19.1198 122.645 19.2996C122.882 19.4795 123 19.7436 123 20.0921C123 20.2719 122.923 20.4518 122.769 20.6316C122.627 20.8115 122.42 20.9014 122.147 20.9014C121.887 20.9014 121.674 20.8115 121.508 20.6316C121.342 20.4406 121.277 20.2157 121.312 19.9572C120.862 19.946 120.406 20.1089 119.945 20.4462C119.494 20.7834 119.11 21.233 118.79 21.7951L118.808 25.9429C118.808 26.4488 118.784 26.831 118.737 27.0895L119.856 27.0389V27.7302H116.214V27.2244C116.557 27.2244 116.8 27.1457 116.942 26.9883C117.096 26.8197 117.185 26.6118 117.209 26.3645C117.244 26.1059 117.262 25.7069 117.262 25.1673V21.323C117.262 20.8508 117.286 20.4855 117.333 20.227L116.072 20.2776V19.5863H116.623C117.073 19.5863 117.398 19.5525 117.6 19.4851C117.801 19.4064 117.99 19.2884 118.168 19.131H118.683C118.731 19.5694 118.76 20.1258 118.772 20.8003C119.068 20.3394 119.489 19.9291 120.033 19.5694C120.59 19.2097 121.164 19.0298 121.756 19.0298Z" fill="white"/>
<path d="M21.5427 37.9083V43.158L1 22.079L20.2539 2.32245L21.5427 1L35.5897 15.6588" stroke="white"/>
<path d="M23.4169 44V24.4438H26.8537V40.4735M28.6502 38.6301V24.4438H32.087V35.1036M33.8835 33.2201V24.4438H37.3203V29.6936" stroke="white"/>
<path d="M39 19.3141H21.6598C21.2692 20.2759 20.371 20.877 19.3946 20.877C18.0277 20.877 16.9342 19.7549 16.9342 18.3523C16.9342 16.9497 18.0277 15.8276 19.3946 15.8276H36.0769" stroke="white"/>
<path d="M38.1487 23.1422H22.5895V20.6157H38.1487V23.1422Z" stroke="white"/>
</svg>
