<svg width="177" height="62" viewBox="0 0 177 62" fill="none" xmlns="http://www.w3.org/2000/svg">
<path d="M83.869 26.2958H83.0586C83.0586 24.954 82.7639 24.0376 82.1745 23.5467C81.6014 23.0558 80.791 22.8267 79.7432 22.8595L77.6312 22.9085C77.0418 22.9249 76.6161 23.0395 76.3541 23.2522C76.0922 23.4485 75.9284 23.7349 75.8629 24.1113C75.7975 24.4712 75.7647 25.044 75.7647 25.8294V29.7566L80.3817 29.7812L80.2098 27.6703H81.2904V32.8248H80.4799C80.4799 32.2193 80.4063 31.7612 80.2589 31.4502C80.1116 31.123 79.8823 30.9103 79.5713 30.8121C79.2766 30.6975 78.8591 30.6403 78.3188 30.6403L77.5575 30.6648L75.7647 30.7384V36.3593C75.7647 37.2102 75.7402 37.8483 75.691 38.2738L80.3817 38.2002C81.5278 38.1838 82.4037 37.8974 83.0095 37.3411C83.6152 36.7684 83.9181 35.7866 83.9181 34.3957H84.7531L84.6058 39.182H71.9336V38.372C72.5066 38.3556 72.9159 38.2247 73.1615 37.9793C73.4071 37.7338 73.5463 37.4474 73.579 37.1202C73.6118 36.7765 73.6281 36.1875 73.6281 35.3529V24.7494C73.6281 24.0622 73.6527 23.4731 73.7018 22.9822L71.9336 23.0804V22.0004H83.7462L83.869 26.2958Z" fill="white"/>
<path d="M95.744 30.4684V32.0884L87.0257 32.1866V30.4684H95.744Z" fill="white"/>
<path d="M110.965 27.1794H110.032C110.016 26.1485 109.909 25.3303 109.713 24.7249C109.533 24.1031 109.214 23.6449 108.755 23.3504C108.313 23.0395 107.675 22.884 106.84 22.884H104.752L104.728 36.2611C104.728 37.1284 104.703 37.7747 104.654 38.2002L106.692 38.102V39.182H100.921V38.372C101.625 38.3392 102.075 38.1429 102.272 37.7829C102.485 37.4229 102.591 36.8665 102.591 36.1138V35.3529L102.616 22.9085L100.086 22.9331C99.0709 22.9331 98.3424 23.2767 97.9003 23.964C97.4746 24.6349 97.2618 25.7067 97.2618 27.1794H96.3531L96.5005 22.0004H110.818L110.965 27.1794Z" fill="white"/>
<path d="M117.543 26.5167C118.476 26.5167 119.319 26.7212 120.072 27.1303C120.825 27.5394 121.423 28.153 121.865 28.9712C122.307 29.773 122.528 30.763 122.528 31.9412L113.883 32.0884C113.867 34.052 114.186 35.582 114.841 36.6784C115.513 37.7747 116.544 38.3229 117.936 38.3229C118.689 38.3229 119.458 38.1265 120.244 37.7338C121.046 37.3411 121.66 36.8584 122.086 36.2856L122.675 36.7765C122.053 37.7256 121.243 38.4292 120.244 38.8874C119.262 39.3456 118.296 39.5747 117.346 39.5747C116.217 39.5747 115.193 39.3129 114.276 38.7892C113.376 38.2493 112.664 37.4883 112.14 36.5065C111.616 35.5084 111.354 34.3629 111.354 33.0702C111.354 31.9248 111.616 30.853 112.14 29.8548C112.664 28.8403 113.392 28.0303 114.326 27.4248C115.275 26.8194 116.348 26.5167 117.543 26.5167ZM117.567 27.4739C115.537 27.4739 114.334 28.6685 113.957 31.0575H120.22C120.22 30.0757 119.999 29.233 119.556 28.5294C119.114 27.8258 118.451 27.4739 117.567 27.4739Z" fill="white"/>
<path d="M132.253 26.5167C133.677 26.5167 134.717 26.9667 135.372 27.8667C136.027 28.7503 136.354 30.133 136.354 32.0148V36.5802C136.354 37.3165 136.322 37.8729 136.256 38.2493L137.803 38.1756V39.182H132.793V38.4456C133.268 38.4456 133.604 38.3311 133.8 38.102C134.013 37.8565 134.136 37.5538 134.169 37.1938C134.218 36.8174 134.242 36.2365 134.242 35.4511V32.0148C134.226 30.6075 133.997 29.5521 133.555 28.8485C133.113 28.1285 132.417 27.7685 131.467 27.7685C130.878 27.7685 130.288 27.9158 129.699 28.2103C129.126 28.5048 128.651 28.8894 128.275 29.3639C128.291 29.5439 128.299 29.863 128.299 30.3212L128.275 36.5802C128.275 37.3165 128.242 37.8729 128.176 38.2493L129.723 38.1756V39.182H124.714V38.4456C125.188 38.4456 125.524 38.3311 125.72 38.102C125.933 37.8565 126.056 37.562 126.089 37.2184C126.122 36.8584 126.146 36.2693 126.163 35.4511L126.187 29.8548C126.187 29.1676 126.22 28.6357 126.285 28.2594L124.542 28.3576V27.3267C125.508 27.3267 126.171 27.2776 126.531 27.1794C126.891 27.0649 127.194 26.893 127.44 26.6639H128.152C128.184 26.9749 128.217 27.4739 128.25 28.1612C128.807 27.6703 129.437 27.2776 130.141 26.983C130.861 26.6721 131.565 26.5167 132.253 26.5167Z" fill="white"/>
<path d="M150.854 36.5802C150.854 37.1038 150.821 37.6602 150.756 38.2493L152.5 38.1511V39.182H148.988C148.906 38.7402 148.849 38.3147 148.816 37.9056C148.341 38.4292 147.76 38.8383 147.072 39.1329C146.401 39.4274 145.672 39.5747 144.886 39.5747C143.871 39.5747 142.963 39.3211 142.16 38.8138C141.358 38.3065 140.728 37.5865 140.269 36.6538C139.811 35.7211 139.582 34.6329 139.582 33.3893C139.582 32.0802 139.852 30.9021 140.392 29.8548C140.933 28.8076 141.677 27.9894 142.627 27.4003C143.593 26.8112 144.682 26.5167 145.893 26.5167C146.401 26.5167 146.917 26.5903 147.44 26.7376C147.981 26.8685 148.423 27.0239 148.767 27.2039V23.8413C148.767 23.2194 148.791 22.6876 148.84 22.2458L147.097 22.344V21.3131C148.063 21.3131 148.75 21.2558 149.16 21.1413C149.585 21.0267 149.913 20.8631 150.142 20.6504H150.854V36.5802ZM146.041 27.4739C144.862 27.4739 143.912 27.9648 143.192 28.9466C142.472 29.9121 142.111 31.1966 142.111 32.8002C142.111 34.4693 142.431 35.8193 143.069 36.8502C143.708 37.8647 144.608 38.372 145.771 38.372C146.294 38.372 146.827 38.2247 147.367 37.9302C147.923 37.6193 148.39 37.2265 148.767 36.752C148.75 36.4902 148.742 36.0402 148.742 35.402L148.767 28.333C147.997 27.7603 147.088 27.4739 146.041 27.4739Z" fill="white"/>
<path d="M160.448 26.5167C161.381 26.5167 162.224 26.7212 162.978 27.1303C163.731 27.5394 164.328 28.153 164.77 28.9712C165.212 29.773 165.433 30.763 165.433 31.9412L156.789 32.0884C156.772 34.052 157.092 35.582 157.747 36.6784C158.418 37.7747 159.449 38.3229 160.841 38.3229C161.594 38.3229 162.364 38.1265 163.149 37.7338C163.952 37.3411 164.566 36.8584 164.991 36.2856L165.581 36.7765C164.959 37.7256 164.148 38.4292 163.149 38.8874C162.167 39.3456 161.201 39.5747 160.252 39.5747C159.122 39.5747 158.099 39.3129 157.182 38.7892C156.281 38.2493 155.569 37.4883 155.045 36.5065C154.521 35.5084 154.259 34.3629 154.259 33.0702C154.259 31.9248 154.521 30.853 155.045 29.8548C155.569 28.8403 156.298 28.0303 157.231 27.4248C158.18 26.8194 159.253 26.5167 160.448 26.5167ZM160.473 27.4739C158.442 27.4739 157.239 28.6685 156.863 31.0575H163.125C163.125 30.0757 162.904 29.233 162.462 28.5294C162.02 27.8258 161.357 27.4739 160.473 27.4739Z" fill="white"/>
<path d="M175.281 26.5167C175.772 26.5167 176.182 26.6476 176.509 26.9094C176.837 27.1712 177 27.5558 177 28.063C177 28.3248 176.894 28.5866 176.681 28.8485C176.485 29.1103 176.198 29.2412 175.821 29.2412C175.461 29.2412 175.167 29.1103 174.937 28.8485C174.708 28.5703 174.618 28.243 174.667 27.8667C174.045 27.8503 173.415 28.0876 172.776 28.5785C172.154 29.0694 171.622 29.7239 171.18 30.5421L171.204 36.5802C171.204 37.3165 171.172 37.8729 171.106 38.2493L172.653 38.1756V39.182H167.619V38.4456C168.094 38.4456 168.429 38.3311 168.626 38.102C168.839 37.8565 168.961 37.5538 168.994 37.1938C169.043 36.8174 169.068 36.2365 169.068 35.4511V29.8548C169.068 29.1676 169.101 28.6357 169.166 28.2594L167.422 28.333V27.3267H168.184C168.806 27.3267 169.256 27.2776 169.534 27.1794C169.813 27.0649 170.075 26.893 170.32 26.6639H171.033C171.098 27.3021 171.139 28.1121 171.155 29.0939C171.565 28.423 172.146 27.8258 172.899 27.3021C173.668 26.7785 174.463 26.5167 175.281 26.5167Z" fill="white"/>
<path d="M29.7652 52.5001V59.8254L1 30.4127L27.9605 2.84528L29.7652 1L49.4347 21.4543" stroke="white"/>
<path d="M32.3896 60.9997V33.7119H37.2021V56.079M39.7177 53.5068V33.7119H44.5301V48.586M47.0457 45.9579V33.7119H51.8581V41.0371" stroke="white"/>
<path d="M54.2105 26.5553H29.9296C29.3827 27.8973 28.1249 28.7361 26.7578 28.7361C24.8437 28.7361 23.3125 27.1704 23.3125 25.2132C23.3125 23.2561 24.8437 21.6904 26.7578 21.6904H50.1174" stroke="white"/>
<path d="M53.2184 32.0936H31.0312V28.1729H53.2184V32.0936Z" stroke="white"/>
</svg>
