<svg width="27" height="27" viewBox="0 0 27 27" fill="none" xmlns="http://www.w3.org/2000/svg">
<circle cx="13.5" cy="13.5" r="13" stroke="#CE8159"/>
<path d="M16.1348 10.3496C16.1348 10.8848 15.9727 11.3398 15.6484 11.7148C15.3242 12.0898 14.8691 12.3477 14.2832 12.4883V12.5234C14.9746 12.6094 15.498 12.8203 15.8535 13.1562C16.209 13.4883 16.3867 13.9375 16.3867 14.5039C16.3867 15.3281 16.0879 15.9707 15.4902 16.4316C14.8926 16.8887 14.0391 17.1172 12.9297 17.1172C12 17.1172 11.1758 16.9629 10.457 16.6543V15.1133C10.7891 15.2812 11.1543 15.418 11.5527 15.5234C11.9512 15.6289 12.3457 15.6816 12.7363 15.6816C13.334 15.6816 13.7754 15.5801 14.0605 15.377C14.3457 15.1738 14.4883 14.8477 14.4883 14.3984C14.4883 13.9961 14.3242 13.7109 13.9961 13.543C13.668 13.375 13.1445 13.291 12.4258 13.291H11.7754V11.9023H12.4375C13.1016 11.9023 13.5859 11.8164 13.8906 11.6445C14.1992 11.4688 14.3535 11.1699 14.3535 10.748C14.3535 10.0996 13.9473 9.77539 13.1348 9.77539C12.8535 9.77539 12.5664 9.82227 12.2734 9.91602C11.9844 10.0098 11.6621 10.1719 11.3066 10.4023L10.4688 9.1543C11.25 8.5918 12.1816 8.31055 13.2637 8.31055C14.1504 8.31055 14.8496 8.49023 15.3613 8.84961C15.877 9.20898 16.1348 9.70898 16.1348 10.3496Z" fill="#CE8159"/>
</svg>
