<svg width="27" height="27" viewBox="0 0 27 27" fill="none" xmlns="http://www.w3.org/2000/svg">
<circle cx="13.5" cy="13.5" r="13" stroke="#CE8159"/>
<path d="M16.4688 18H10.4805V16.7402L12.6309 14.5664C13.2676 13.9141 13.6836 13.4629 13.8789 13.2129C14.0742 12.959 14.2148 12.7246 14.3008 12.5098C14.3867 12.2949 14.4297 12.0723 14.4297 11.8418C14.4297 11.498 14.334 11.2422 14.1426 11.0742C13.9551 10.9062 13.7031 10.8223 13.3867 10.8223C13.0547 10.8223 12.7324 10.8984 12.4199 11.0508C12.1074 11.2031 11.7812 11.4199 11.4414 11.7012L10.457 10.5352C10.8789 10.1758 11.2285 9.92188 11.5059 9.77344C11.7832 9.625 12.0859 9.51172 12.4141 9.43359C12.7422 9.35156 13.1094 9.31055 13.5156 9.31055C14.0508 9.31055 14.5234 9.4082 14.9336 9.60352C15.3438 9.79883 15.6621 10.0723 15.8887 10.4238C16.1152 10.7754 16.2285 11.1777 16.2285 11.6309C16.2285 12.0254 16.1582 12.3965 16.0176 12.7441C15.8809 13.0879 15.666 13.4414 15.373 13.8047C15.084 14.168 14.5723 14.6855 13.8379 15.3574L12.7363 16.3945V16.4766H16.4688V18Z" fill="#CE8159"/>
</svg>
